HIERARCHY
ROOT hip
{
	OFFSET 0.000000 0.000000 0.000000 
	CHANNELS 6 Xposition Yposition Zposition Xrotation Zrotation Yrotation
	JOINT abdomen
	{
		OFFSET 0.000000 3.402643 0.000000 
		CHANNELS 3 Xrotation Zrotation Yrotation
		JOINT chest
		{
			OFFSET 0.000000 8.438565 -0.680529 
			CHANNELS 3 Xrotation Zrotation Yrotation
			JOINT neck
			{
				OFFSET 0.000000 10.207942 -0.272212 
				CHANNELS 3 Xrotation Zrotation Yrotation
				JOINT head
				{
					OFFSET 0.000000 3.130431 0.000000 
					CHANNELS 3 Xrotation Zrotation Yrotation
					End Site
					{
						OFFSET 0.000000 3.130435 0.000000 
					}
				}
			}
			JOINT lCollar
			{
				OFFSET 3.470700 6.669187 -0.816635 
				CHANNELS 3 Yrotation Zrotation Xrotation
				JOINT lShldr
				{
					OFFSET 3.198488 0.000000 0.000000 
					CHANNELS 3 Zrotation Yrotation Xrotation
					JOINT lForeArm
					{
						OFFSET 10.139888 0.000000 0.000000 
						CHANNELS 3 Yrotation Zrotation Xrotation
						JOINT lHand
						{
							OFFSET 8.370511 0.000000 0.000000 
							CHANNELS 3 Zrotation Yrotation Xrotation
							End Site
							{
								OFFSET 4.083176 0.000000 0.000000 
							}
						}
					}
				}
			}
			JOINT rCollar
			{
				OFFSET -3.470700 6.669187 -0.816635 
				CHANNELS 3 Yrotation Zrotation Xrotation
				JOINT rShldr
				{
					OFFSET -3.198488 0.000000 0.000000 
					CHANNELS 3 Zrotation Yrotation Xrotation
					JOINT rForeArm
					{
						OFFSET -10.139888 0.000000 0.000000 
						CHANNELS 3 Yrotation Zrotation Xrotation
						JOINT rHand
						{
							OFFSET -8.370511 0.000000 0.000000 
							CHANNELS 3 Zrotation Yrotation Xrotation
							End Site
							{
								OFFSET -4.083176 0.000000 0.000000 
							}
						}
					}
				}
			}
		}
	}
	JOINT lThigh
	{
		OFFSET 5.308129 -1.633274 1.361059 
		CHANNELS 3 Xrotation Zrotation Yrotation
		JOINT lShin
		{
			OFFSET -2.041588 -20.007561 0.000000 
			CHANNELS 3 Xrotation Zrotation Yrotation
			JOINT lFoot
			{
				OFFSET 0.000000 -19.190928 -1.224953 
				CHANNELS 3 Xrotation Yrotation Zrotation
				End Site
				{
					OFFSET 0.000000 -2.449906 4.627600 
				}
			}
		}
	}
	JOINT rThigh
	{
		OFFSET -5.308129 -1.633274 1.361059 
		CHANNELS 3 Xrotation Zrotation Yrotation
		JOINT rShin
		{
			OFFSET 2.041588 -20.007561 0.000000 
			CHANNELS 3 Xrotation Zrotation Yrotation
			JOINT rFoot
			{
				OFFSET 0.000000 -19.190928 -1.224953 
				CHANNELS 3 Xrotation Yrotation Zrotation
				End Site
				{
					OFFSET 0.000000 -2.449906 4.627600 
				}
			}
		}
	}
}
MOTION
Frames: 19
Frame Time: 0.033333
0.057811 30.461660 -0.015495 1.406250 3.154297 115.215370 36.278149 -8.378317 -7.961905 -19.199217 9.619140 0.607101 51.063168 8.107644 2.471410 -57.470707 -1.738281 3.203125 2.000000 -2.000000 0.000000 -47.636719 -9.169922 -6.222257 -64.810493 -1.035659 -2.547433 -68.166016 47.325466 -80.112938 -2.000000 2.000000 0.000000 55.136715 5.156250 -11.865233 66.699776 0.839980 -2.715556 60.417389 -60.196205 -67.499039 -70.085526 17.137320 18.825930 61.145889 -2.484506 -4.475626 20.326326 3.204270 17.062946 -72.835281 -21.480656 -13.162287 64.795547 1.474506 4.135581 -9.105780 17.217958 -7.051458 
0.117316 30.417112 -0.030757 1.406250 2.792969 115.029770 36.669926 -7.961948 -8.322626 -19.023438 9.609375 0.458984 51.063168 8.107644 2.471410 -58.027348 -2.041015 3.964844 2.000000 -2.000000 0.000000 -47.773438 -8.828125 -7.491733 -64.986275 -1.035659 -2.547433 -67.416222 47.185081 -79.529602 -2.000000 2.000000 0.000000 54.892582 5.673828 -11.532237 66.875557 0.839980 -2.715556 60.225822 -59.164185 -67.803162 -70.590179 17.652727 18.884306 61.317158 -2.650590 -4.602192 20.518120 3.584338 16.978422 -73.122368 -21.121845 -12.602769 64.851227 1.972491 4.345542 -8.872438 16.848389 -7.032476 
0.178379 30.367582 -0.045813 1.230469 2.617188 114.668411 37.232609 -7.765722 -8.651299 -18.837891 9.775391 0.343455 51.063168 8.107644 2.471410 -58.574219 -2.158203 4.882813 2.000000 -2.000000 0.000000 -47.646484 -8.701172 -8.447267 -64.986275 -1.035659 -2.547433 -67.122383 47.158718 -79.150276 -2.000000 2.000000 0.000000 54.677734 5.888672 -11.074220 67.579529 0.802679 -2.747049 60.380764 -58.210350 -68.050049 -71.105278 18.187735 18.735794 61.532791 -2.808166 -4.583706 20.531162 3.559807 17.129021 -73.501686 -20.769499 -12.581361 64.665932 1.982286 4.327820 -8.680005 16.902811 -7.454940 
0.240856 30.323614 -0.060659 1.054688 2.275391 114.307030 37.629303 -7.500526 -9.110435 -18.642580 9.941406 0.419922 51.063168 8.107644 2.471410 -59.277348 -2.275390 5.820313 2.000000 -2.000000 0.000000 -47.753906 -8.789063 -9.444852 -64.986275 -1.035659 -2.547433 -66.683266 46.908657 -79.195297 -2.000000 2.000000 0.000000 54.267578 6.123047 -10.449403 68.451263 0.603030 -2.846601 61.383881 -57.047935 -69.356422 -71.413391 18.689884 19.185383 61.523754 -2.806846 -4.563352 20.424362 3.424100 17.113535 -73.888893 -20.259657 -12.526387 64.489372 2.011682 4.341896 -8.710473 17.102222 -7.291133 
0.304607 30.278595 -0.075331 1.044922 1.904297 113.935867 38.019215 -7.084524 -9.470560 -18.457033 10.283202 0.332031 51.063168 8.107644 2.471410 -60.166016 -2.197266 6.748047 2.000000 -2.000000 0.000000 -47.695316 -8.720703 -10.410155 -65.162056 -1.035659 -2.547433 -67.189659 46.760757 -79.976715 -2.000000 2.000000 0.000000 53.886715 6.191406 -10.097656 69.506783 0.575476 -2.877529 62.503677 -56.079029 -70.676483 -71.920914 18.992298 19.694281 61.685551 -2.611562 -4.445787 20.323288 3.279086 17.066517 -74.290802 -19.928732 -12.346416 64.313324 2.031183 4.340300 -8.584159 17.202173 -7.290186 
0.369491 30.247120 -0.089854 0.869141 1.572266 113.564453 38.571896 -6.913723 -9.788264 -18.271484 10.439453 0.224609 51.063168 8.107644 2.471410 -61.210941 -2.099609 7.832032 2.000000 -2.000000 0.000000 -47.587891 -8.330077 -11.660155 -65.159706 -1.206613 -2.459261 -67.200150 46.673161 -80.140076 -2.000000 2.000000 0.000000 53.710938 6.259766 -9.393465 70.574409 0.678901 -2.636753 63.312786 -54.956127 -71.857780 -72.249527 19.526619 19.602015 61.845245 -2.583507 -4.635453 20.242563 3.347050 17.319759 -74.832039 -19.393644 -12.967660 64.267456 1.533069 4.143577 -8.542283 17.547325 -7.501939 
0.435365 30.191925 -0.104227 0.703125 1.210938 113.203331 38.964680 -6.630788 -10.239980 -18.076172 10.605470 0.126953 51.063168 8.107644 2.471410 -62.109375 -2.197265 8.945313 2.000000 -2.000000 0.000000 -47.148441 -7.734375 -12.285156 -65.162056 -1.035659 -2.547433 -67.138832 46.944073 -80.001930 -2.000000 2.000000 0.000000 53.544922 6.025391 -8.670849 71.955940 0.238612 -2.466728 65.482918 -54.066696 -74.207130 -72.750290 20.036566 19.958773 62.027584 -2.592312 -4.471940 20.205353 3.446481 17.145273 -75.081825 -19.001276 -12.401598 64.138519 2.059453 4.305363 -8.348465 17.291410 -7.627977 
0.502088 30.145521 -0.118494 0.527344 0.849612 112.861275 39.353138 -6.224348 -10.604401 -17.890625 10.761720 0.009766 51.063168 8.107644 2.471410 -63.154301 -2.099609 10.224608 2.000000 -2.000000 0.000000 -46.367191 -7.265625 -13.144531 -65.162056 -1.035659 -2.547433 -67.426903 47.097492 -79.693016 -2.000000 2.000000 0.000000 53.066406 5.478515 -8.124067 73.728081 0.405069 -2.975389 65.257919 -52.778942 -74.795357 -73.273651 20.560530 19.955420 62.016384 -2.417417 -4.515460 20.004507 3.339174 17.366888 -75.483353 -18.503876 -12.207293 64.137924 2.031105 4.317293 -8.429440 17.349581 -7.154217 
0.569516 30.091249 -0.132659 0.527344 0.498046 112.500053 39.910557 -5.960138 -11.063454 -17.705078 10.927734 -0.086039 51.063168 8.107644 2.471410 -64.208984 -2.001953 11.318018 2.000000 -2.000000 0.000000 -45.800781 -6.611327 -13.837890 -65.162056 -1.035659 -2.547433 -67.664864 47.346107 -79.191887 -2.000000 2.000000 0.000000 53.154297 4.912109 -7.391740 75.823456 0.318851 -3.175992 64.997498 -51.715115 -75.147141 -73.582962 20.878178 20.499878 62.201111 -2.407888 -4.553479 20.052111 3.605544 17.440783 -75.844261 -18.142281 -12.384630 63.961853 2.050606 4.315620 -8.237946 17.535299 -7.266634 
0.637513 30.076092 -0.146741 0.351563 0.146484 112.148438 40.294128 -5.774993 -11.366875 -17.519531 11.083985 -0.193435 51.063168 8.107644 2.471410 -65.263672 -1.914062 12.587892 2.000000 -2.000000 0.000000 -45.214844 -5.751953 -14.599607 -64.986275 -1.035659 -2.547433 -67.636124 47.501282 -78.855362 -2.000000 2.000000 0.000000 53.017582 4.101563 -6.532505 78.285515 0.223610 -3.220597 64.865662 -50.697929 -75.722000 -74.106094 21.421827 20.321032 62.414742 -2.719259 -4.596194 19.925648 3.383806 17.567001 -76.428627 -17.643713 -12.107521 63.785976 2.079059 4.309583 -8.040664 17.296099 -7.621440 
0.705928 30.079330 -0.160765 0.166016 -0.175781 111.767578 40.671631 -5.372387 -11.722056 -17.333984 11.259766 -0.300828 51.063168 8.107644 2.471410 -66.289063 -1.640625 13.632533 2.000000 -2.000000 0.000000 -44.619141 -5.458984 -15.547804 -64.810493 -1.035659 -2.547433 -67.076904 47.606926 -78.179253 -2.000000 2.000000 0.000000 52.939449 3.222656 -5.810547 80.755821 0.290488 -2.854900 64.724251 -49.268753 -76.726006 -74.602280 22.103647 20.500788 62.591179 -2.739782 -4.593691 20.040884 3.519850 17.757778 -76.800758 -17.292253 -12.321996 63.610008 2.070231 4.300632 -7.662299 17.424175 -7.763668 
0.774633 30.017191 -0.174755 0.000000 -0.361328 111.435547 41.225418 -5.090520 -12.175029 -17.324221 11.435547 -0.439453 51.063168 8.107644 2.471410 -67.333984 -1.552734 14.892577 2.000000 -2.000000 0.000000 -44.033203 -4.980469 -16.494991 -64.810493 -1.035659 -2.547433 -66.518051 47.712700 -77.513107 -2.000000 2.000000 0.000000 52.832031 2.421875 -4.970289 83.209488 0.012840 -2.958964 64.379868 -48.152046 -77.270699 -74.734734 22.772366 20.661713 62.551201 -2.465384 -4.624126 19.630033 2.974877 17.682222 -77.008278 -16.786032 -11.992734 63.440334 2.255861 3.876521 -7.930707 17.868597 -6.814520 
0.843471 29.968706 -0.188723 0.000000 -0.722656 111.093750 41.611488 -4.688274 -12.531862 -17.128906 11.591798 -0.546875 51.063168 8.107644 2.471410 -68.369141 -1.269531 16.083986 2.000000 -2.000000 0.000000 -43.759762 -4.726563 -17.735180 -64.631798 -1.224978 -2.438636 -66.024010 47.606621 -76.821976 -2.000000 2.000000 0.000000 52.558594 1.259766 -4.091797 85.846748 -0.103023 -2.985223 63.811493 -46.935066 -77.580292 -75.447708 23.152990 20.873688 62.735321 -2.534933 -4.679359 19.767754 3.633092 17.694544 -77.368881 -16.424120 -12.193450 63.257980 2.099541 4.291274 -7.735516 17.463671 -7.268949 
0.912324 29.954821 -0.202691 -0.205078 -1.064454 110.722488 41.974045 -4.516223 -12.829276 -16.933594 11.748048 -0.634766 51.063168 8.107644 2.471410 -69.414063 -1.005859 17.294926 2.000000 -2.000000 0.000000 -43.417969 -3.974609 -18.798828 -64.458641 -1.054591 -2.536553 -64.959282 47.635441 -75.846428 -2.000000 2.000000 0.000000 52.666019 0.087891 -3.466782 88.484276 -0.198824 -3.020099 63.482716 -45.898129 -77.992149 -75.974342 23.513952 20.965391 62.734776 -2.543606 -4.694040 19.647940 3.477623 18.037912 -77.738731 -16.082134 -12.195701 63.082611 2.137415 4.271241 -7.468621 17.645514 -7.827518 
0.981016 29.938385 -0.216670 -0.361328 -1.425781 110.380859 42.349957 -4.108463 -13.173492 -16.748047 11.904297 -0.742188 51.063168 8.107644 2.471410 -70.263672 -0.751953 18.300787 2.000000 -2.000000 0.000000 -42.988281 -3.564453 -20.273438 -64.280228 -1.234727 -2.438068 -64.830002 47.520470 -75.150169 -2.000000 2.000000 0.000000 52.548828 -0.781250 -2.529430 91.112221 -0.489047 -3.075998 63.430798 -44.817791 -78.475967 -76.298332 24.023113 21.153711 62.912628 -2.515280 -4.653147 19.500053 3.337650 18.044155 -78.100845 -15.535357 -12.387528 62.906288 2.128843 4.272129 -7.667949 17.763039 -7.960392 
1.049443 29.872776 -0.230694 -0.361328 -1.767578 110.039070 42.901104 -3.840019 -13.621739 -16.552734 12.060548 -0.654297 51.063168 8.107644 2.471410 -71.308594 -0.507813 19.482424 2.000000 -2.000000 0.000000 -42.490234 -2.910156 -21.513674 -64.106514 -1.072957 -2.515928 -63.979961 47.679192 -73.883896 -2.000000 2.000000 0.000000 52.460938 -1.943359 -2.060876 93.749168 -0.585977 -3.091383 62.947781 -44.154743 -78.520889 -76.640373 24.560446 21.163120 62.963783 -2.847413 -4.581393 19.313320 3.298851 18.013494 -78.483978 -15.214038 -12.243435 62.717182 2.158051 4.091538 -7.652312 17.987684 -7.826365 
1.117431 29.862942 -0.244790 -0.537109 -2.304691 109.687134 43.263325 -3.541736 -13.811081 -16.367189 12.226563 -0.761719 51.063168 8.107644 2.471410 -72.343750 -0.244140 20.654285 2.000000 -2.000000 0.000000 -41.992188 -1.982422 -22.978849 -63.930733 -1.072957 -2.515928 -63.832989 47.553505 -73.188042 -2.000000 2.000000 0.000000 52.158203 -3.066406 -1.514192 96.200264 -0.702969 -3.098150 62.278828 -43.236938 -78.684105 -76.962158 25.097208 21.346502 63.138882 -2.865934 -4.616745 19.596869 3.446773 18.368265 -78.669411 -14.686737 -12.271429 62.551342 2.167874 4.074962 -7.546397 18.093384 -7.781492 
1.184878 29.841764 -0.258941 -0.537109 -2.480473 109.335541 43.629192 -3.137772 -14.147384 -16.357422 12.392579 -0.898438 51.063168 8.107644 2.471410 -73.173828 0.166016 21.582031 2.000000 -2.000000 0.000000 -41.787109 -1.474609 -23.847656 -63.742672 -0.901555 -2.428116 -63.348385 47.458252 -72.507401 -2.000000 2.000000 0.000000 52.236324 -4.160156 -1.074219 98.837173 -0.809648 -3.114098 62.392330 -43.154964 -78.398941 -77.271347 25.592064 21.886213 63.087814 -2.495850 -4.684814 19.286932 3.576781 18.322016 -78.840965 -14.313979 -12.346338 62.368301 2.177618 4.259633 -7.538960 18.065382 -7.796120 
1.251589 29.822437 -0.273209 -0.722656 -2.832031 108.994141 43.997799 -2.953951 -14.451541 -16.162109 12.548830 -0.993972 51.063168 8.107644 2.471410 -74.042976 0.400391 22.734379 2.000000 -2.000000 0.000000 -41.259766 -0.761719 -25.458984 -63.578899 -1.082140 -2.505615 -62.497570 47.637012 -71.114990 -2.000000 2.000000 0.000000 52.304688 -5.664063 -0.957031 101.278046 -1.083192 -3.120141 61.952194 -43.718670 -77.210388 -77.834953 25.784630 21.724207 63.087814 -2.495846 -4.684812 19.182449 3.421607 18.311638 -79.212303 -13.972429 -12.198414 62.032829 2.216667 4.063650 -7.505404 18.297197 -7.626515 
